<svg style="display: none" xmlns="http://www.w3.org/2000/svg">
  <symbol fill="none" viewBox="0 0 14 18" id="icon-cart">
    <path
      d="M12 4H10.3203C10.3203 3.375 10.1641 2.8151 9.85156 2.32031C9.5651 1.82552 9.17448 1.4349 8.67969 1.14844C8.1849 0.835938 7.625 0.679688 7 0.679688C6.375 0.679688 5.8151 0.835938 5.32031 1.14844C4.82552 1.4349 4.42188 1.82552 4.10938 2.32031C3.82292 2.8151 3.67969 3.375 3.67969 4H2C1.53125 4 1.1276 4.16927 0.789062 4.50781C0.476562 4.82031 0.320312 5.21094 0.320312 5.67969V15.6797C0.320312 16.1224 0.476562 16.513 0.789062 16.8516C1.1276 17.1641 1.53125 17.3203 2 17.3203H12C12.4688 17.3203 12.8594 17.1641 13.1719 16.8516C13.5104 16.513 13.6797 16.1224 13.6797 15.6797V5.67969C13.6797 5.21094 13.5104 4.82031 13.1719 4.50781C12.8594 4.16927 12.4688 4 12 4ZM5.32031 7.32031C5.32031 7.55469 5.24219 7.76302 5.08594 7.94531C4.92969 8.10156 4.73438 8.17969 4.5 8.17969C4.26562 8.17969 4.07031 8.10156 3.91406 7.94531C3.75781 7.76302 3.67969 7.55469 3.67969 7.32031V5.67969H5.32031V7.32031ZM7 2.32031C7.46875 2.32031 7.85938 2.48958 8.17188 2.82812C8.51042 3.14062 8.67969 3.53125 8.67969 4H5.32031C5.32031 3.53125 5.47656 3.14062 5.78906 2.82812C6.1276 2.48958 6.53125 2.32031 7 2.32031ZM10.3203 7.32031C10.3203 7.55469 10.2422 7.76302 10.0859 7.94531C9.92969 8.10156 9.73438 8.17969 9.5 8.17969C9.26562 8.17969 9.07031 8.10156 8.91406 7.94531C8.75781 7.76302 8.67969 7.55469 8.67969 7.32031V5.67969H10.3203V7.32031Z"
      fill="currentColor"
    ></path>
  </symbol>
  <symbol fill="none" viewBox="0 0 16 16" id="icon-close">
    <path
      d="M14.8353 14.3639L14.3638 14.8353C14.1035 15.0956 13.6814 15.0956 13.421 14.8353L7.9999 9.4141L2.5787 14.8352C2.3184 15.0956 1.89626 15.0956 1.63591 14.8352L1.1645 14.3638C0.904151 14.1035 0.904151 13.6814 1.1645 13.421L6.5857 7.9999L1.1645 2.5787C0.904151 2.3184 0.904151 1.89626 1.1645 1.63591L1.6359 1.16451C1.89625 0.904159 2.3184 0.904159 2.5787 1.16451L7.9999 6.5857L13.421 1.1645C13.6814 0.90415 14.1035 0.90415 14.3638 1.1645L14.8353 1.6359C15.0956 1.89625 15.0956 2.3184 14.8353 2.5787L9.4141 7.9999L14.8353 13.421C15.0956 13.6814 15.0956 14.1035 14.8353 14.3639Z"
      fill="currentColor"
    ></path>
  </symbol>
  <symbol fill="none" viewBox="0 0 22 28" id="icon-description">
    <path
      d="M12.3125 10H19.6875L12.3125 2.6875V10ZM16.3125 16.6875V14H5.6875V16.6875H16.3125ZM16.3125 22V19.3125H5.6875V22H16.3125ZM13.6875 0.6875L21.6875 8.6875V24.6875C21.6875 25.3958 21.4167 26.0208 20.875 26.5625C20.3333 27.0625 19.7083 27.3125 19 27.3125H3C2.29167 27.3125 1.66667 27.0625 1.125 26.5625C0.583333 26.0208 0.3125 25.3958 0.3125 24.6875L0.375 3.3125C0.375 2.60417 0.625 2 1.125 1.5C1.66667 0.958333 2.29167 0.6875 3 0.6875H13.6875Z"
      fill="currentColor"
    ></path>
  </symbol>
  <symbol fill="none" viewBox="0 0 10 18" id="icon-facebook">
    <path
      d="M9.5 3H6.5C5.9477 3 5.5 3.44772 5.5 4V7H9.5C9.6137 6.99748 9.7216 7.0504 9.7892 7.1419C9.8568 7.2334 9.8758 7.352 9.84 7.46L9.1 9.66C9.0318 9.8619 8.8431 9.9984 8.63 10H5.5V17.5C5.5 17.7761 5.2761 18 5 18H2.5C2.22386 18 2 17.7761 2 17.5V10H0.5C0.22386 10 0 9.7761 0 9.5V7.5C0 7.2239 0.22386 7 0.5 7H2V4C2 1.79086 3.7909 0 6 0H9.5C9.7761 0 10 0.22386 10 0.5V2.5C10 2.77614 9.7761 3 9.5 3Z"
      fill="currentColor"
    ></path>
  </symbol>
  <symbol fill="none" viewBox="0 0 28 28" id="icon-family_restroom">
    <path
      d="M19.3125 3.3125C19.3125 2.60417 19.5625 2 20.0625 1.5C20.6042 0.958333 21.25 0.6875 22 0.6875C22.75 0.6875 23.375 0.958333 23.875 1.5C24.4167 2 24.6875 2.60417 24.6875 3.3125C24.6875 4.0625 24.4167 4.70833 23.875 5.25C23.375 5.75 22.75 6 22 6C21.25 6 20.6042 5.75 20.0625 5.25C19.5625 4.70833 19.3125 4.0625 19.3125 3.3125ZM24.6875 27.3125V19.3125H28L24.625 9.1875C24.4167 8.60417 24.0833 8.14583 23.625 7.8125C23.1667 7.47917 22.6458 7.3125 22.0625 7.3125H21.9375C21.3542 7.3125 20.8333 7.47917 20.375 7.8125C19.9167 8.14583 19.5833 8.60417 19.375 9.1875L18.25 12.625C18.9583 13 19.5417 13.5625 20 14.3125C20.4583 15.0208 20.6875 15.8125 20.6875 16.6875V27.3125H24.6875ZM14.6875 13.3125C15.2292 13.3125 15.6875 13.125 16.0625 12.75C16.4792 12.375 16.6875 11.8958 16.6875 11.3125C16.6875 10.7708 16.4792 10.3125 16.0625 9.9375C15.6875 9.52083 15.2292 9.3125 14.6875 9.3125C14.1042 9.3125 13.625 9.52083 13.25 9.9375C12.875 10.3125 12.6875 10.7708 12.6875 11.3125C12.6875 11.8958 12.875 12.375 13.25 12.75C13.625 13.125 14.1042 13.3125 14.6875 13.3125ZM5.3125 6C6.0625 6 6.6875 5.75 7.1875 5.25C7.72917 4.70833 8 4.0625 8 3.3125C8 2.60417 7.72917 2 7.1875 1.5C6.6875 0.958333 6.0625 0.6875 5.3125 0.6875C4.60417 0.6875 3.97917 0.958333 3.4375 1.5C2.9375 2 2.6875 2.60417 2.6875 3.3125C2.6875 4.0625 2.9375 4.70833 3.4375 5.25C3.97917 5.75 4.60417 6 5.3125 6ZM8 27.3125V18H10V10C10 9.25 9.72917 8.625 9.1875 8.125C8.6875 7.58333 8.0625 7.3125 7.3125 7.3125H3.3125C2.60417 7.3125 1.97917 7.58333 1.4375 8.125C0.9375 8.625 0.6875 9.25 0.6875 10V18H2.6875V27.3125H8ZM16.6875 27.3125V22H18V16.6875C18 16.1458 17.7917 15.6875 17.375 15.3125C17 14.8958 16.5417 14.6875 16 14.6875H13.3125C12.7708 14.6875 12.2917 14.8958 11.875 15.3125C11.5 15.6875 11.3125 16.1458 11.3125 16.6875V22H12.6875V27.3125H16.6875Z"
      fill="currentColor"
    ></path>
  </symbol>
  <symbol fill="none" viewBox="0 0 28 23" id="icon-house">
    <path
      d="M11.3125 9.3125H16.6875C16.6875 8.60417 16.4167 8 15.875 7.5C15.3333 6.95833 14.7083 6.6875 14 6.6875C13.2917 6.6875 12.6667 6.95833 12.125 7.5C11.5833 8 11.3125 8.60417 11.3125 9.3125ZM23.3125 8.375L27.3125 12H23.3125V22.6875H16.6875V14.6875H11.3125V22.6875H4.6875V12H0.6875L14 0L19.3125 4.8125V1.3125H23.3125V8.375Z"
      fill="currentColor"
    ></path>
  </symbol>
  <symbol fill="none" viewBox="0 0 18 18" id="icon-instagram">
    <path
      fill-rule="evenodd"
      clip-rule="evenodd"
      d="M13 0H5C2.23858 0 0 2.23858 0 5V13C0 15.7614 2.23858 18 5 18H13C15.7614 18 18 15.7614 18 13V5C18 2.23858 15.7614 0 13 0ZM16.25 13C16.2445 14.7926 14.7926 16.2445 13 16.25H5C3.20735 16.2445 1.75549 14.7926 1.75 13V5C1.75549 3.20735 3.20735 1.75549 5 1.75H13C14.7926 1.75549 16.2445 3.20735 16.25 5V13ZM13.75 5.25C14.3023 5.25 14.75 4.80228 14.75 4.25C14.75 3.69772 14.3023 3.25 13.75 3.25C13.1977 3.25 12.75 3.69772 12.75 4.25C12.75 4.80228 13.1977 5.25 13.75 5.25ZM9 4.5C6.51472 4.5 4.5 6.51472 4.5 9C4.5 11.4853 6.51472 13.5 9 13.5C11.4853 13.5 13.5 11.4853 13.5 9C13.5027 7.8057 13.0294 6.65957 12.1849 5.81508C11.3404 4.97059 10.1943 4.49734 9 4.5ZM6.25 9C6.25 10.5188 7.4812 11.75 9 11.75C10.5188 11.75 11.75 10.5188 11.75 9C11.75 7.4812 10.5188 6.25 9 6.25C7.4812 6.25 6.25 7.4812 6.25 9Z"
      fill="currentColor"
    ></path>
  </symbol>
  <symbol fill="none" viewBox="0 0 30 16" id="icon-key">
    <path
      d="M27 5.3125H15.875C15.5 4.27083 14.9375 3.35417 14.1875 2.5625C13.4792 1.77083 12.6042 1.14583 11.5625 0.6875C10.5625 0.229167 9.47917 0 8.3125 0C6.85417 0 5.52083 0.375 4.3125 1.125C3.10417 1.83333 2.125 2.79167 1.375 4C0.666667 5.20833 0.3125 6.54167 0.3125 8C0.3125 9.45833 0.666667 10.7917 1.375 12C2.125 13.2083 3.10417 14.1875 4.3125 14.9375C5.52083 15.6458 6.85417 16 8.3125 16C9.47917 16 10.5625 15.7708 11.5625 15.3125C12.6042 14.8542 13.4792 14.2292 14.1875 13.4375C14.9375 12.6458 15.5 11.7292 15.875 10.6875H16.3125L19 13.3125L21.6875 10.6875L24.3125 13.3125L29.6875 7.9375L27 5.3125ZM8.3125 12C7.60417 12 6.9375 11.8333 6.3125 11.5C5.72917 11.125 5.25 10.6458 4.875 10.0625C4.5 9.4375 4.3125 8.75 4.3125 8C4.3125 7.25 4.5 6.58333 4.875 6C5.25 5.375 5.72917 4.89583 6.3125 4.5625C6.9375 4.1875 7.60417 4 8.3125 4C9.0625 4 9.72917 4.1875 10.3125 4.5625C10.9375 4.89583 11.4167 5.375 11.75 6C12.125 6.58333 12.3125 7.25 12.3125 8C12.3125 8.75 12.125 9.4375 11.75 10.0625C11.4167 10.6458 10.9375 11.125 10.3125 11.5C9.72917 11.8333 9.0625 12 8.3125 12Z"
      fill="currentColor"
    ></path>
  </symbol>
  <symbol fill="none" viewBox="0 0 18 18" id="icon-linkedin">
    <path
      fill-rule="evenodd"
      clip-rule="evenodd"
      d="M2 0H16C17.1046 0 18 0.89543 18 2V16C18 17.1046 17.1046 18 16 18H2C0.89543 18 0 17.1046 0 16V2C0 0.89543 0.89543 0 2 0ZM5 15C5.27614 15 5.5 14.7761 5.5 14.5V7.5C5.5 7.2239 5.27614 7 5 7H3.5C3.22386 7 3 7.2239 3 7.5V14.5C3 14.7761 3.22386 15 3.5 15H5ZM4.25 6C3.42157 6 2.75 5.32843 2.75 4.5C2.75 3.67157 3.42157 3 4.25 3C5.07843 3 5.75 3.67157 5.75 4.5C5.75 5.32843 5.07843 6 4.25 6ZM14.5 15C14.7761 15 15 14.7761 15 14.5V9.9C15.0325 8.3108 13.8576 6.95452 12.28 6.76C11.177 6.65925 10.1083 7.1744 9.5 8.1V7.5C9.5 7.2239 9.2761 7 9 7H7.5C7.2239 7 7 7.2239 7 7.5V14.5C7 14.7761 7.2239 15 7.5 15H9C9.2761 15 9.5 14.7761 9.5 14.5V10.75C9.5 9.9216 10.1716 9.25 11 9.25C11.8284 9.25 12.5 9.9216 12.5 10.75V14.5C12.5 14.7761 12.7239 15 13 15H14.5Z"
      fill="currentColor"
    ></path>
  </symbol>
  <symbol fill="none" viewBox="0 0 30 22" id="icon-payments">
    <path
      d="M24.3125 13.6875V3C24.3125 2.25 24.0417 1.625 23.5 1.125C23 0.583333 22.3958 0.3125 21.6875 0.3125H3C2.25 0.3125 1.60417 0.583333 1.0625 1.125C0.5625 1.625 0.3125 2.25 0.3125 3V13.6875C0.3125 14.3958 0.5625 15.0208 1.0625 15.5625C1.60417 16.0625 2.25 16.3125 3 16.3125H21.6875C22.3958 16.3125 23 16.0625 23.5 15.5625C24.0417 15.0208 24.3125 14.3958 24.3125 13.6875ZM12.3125 12.3125C11.6042 12.3125 10.9375 12.1458 10.3125 11.8125C9.72917 11.4375 9.25 10.9583 8.875 10.375C8.5 9.75 8.3125 9.0625 8.3125 8.3125C8.3125 7.60417 8.5 6.95833 8.875 6.375C9.25 5.75 9.72917 5.25 10.3125 4.875C10.9375 4.5 11.6042 4.3125 12.3125 4.3125C13.0625 4.3125 13.7292 4.5 14.3125 4.875C14.9375 5.25 15.4167 5.75 15.75 6.375C16.125 6.95833 16.3125 7.60417 16.3125 8.3125C16.3125 9.0625 16.125 9.75 15.75 10.375C15.4167 10.9583 14.9375 11.4375 14.3125 11.8125C13.7292 12.1458 13.0625 12.3125 12.3125 12.3125ZM29.6875 4.3125V19C29.6875 19.75 29.4167 20.3958 28.875 20.9375C28.375 21.4375 27.75 21.6875 27 21.6875H4.3125V19H27V4.3125H29.6875Z"
      fill="currentColor"
    ></path>
  </symbol>
  <symbol fill="none" viewBox="0 0 10 14" id="icon-place">
    <path
      d="M3.84953 6.35938C4.18287 6.67188 4.5787 6.82812 5.03703 6.82812C5.49537 6.82812 5.88078 6.67188 6.19328 6.35938C6.52662 6.02604 6.69328 5.63021 6.69328 5.17188C6.69328 4.71354 6.52662 4.32812 6.19328 4.01562C5.88078 3.68229 5.49537 3.51562 5.03703 3.51562C4.5787 3.51562 4.18287 3.68229 3.84953 4.01562C3.53703 4.32812 3.38078 4.71354 3.38078 5.17188C3.38078 5.63021 3.53703 6.02604 3.84953 6.35938ZM1.72453 1.89062C2.6412 0.973958 3.74537 0.515625 5.03703 0.515625C6.3287 0.515625 7.42245 0.973958 8.31828 1.89062C9.23495 2.78646 9.69328 3.88021 9.69328 5.17188C9.69328 5.81771 9.52662 6.55729 9.19328 7.39062C8.88078 8.22396 8.49537 9.00521 8.03703 9.73438C7.5787 10.4635 7.12037 11.151 6.66203 11.7969C6.22453 12.4219 5.84953 12.9219 5.53703 13.2969L5.03703 13.8281C4.91203 13.6823 4.74537 13.4948 4.53703 13.2656C4.3287 13.0156 3.9537 12.5365 3.41203 11.8281C2.87037 11.099 2.3912 10.401 1.97453 9.73438C1.5787 9.04688 1.21412 8.27604 0.880783 7.42188C0.54745 6.56771 0.380783 5.81771 0.380783 5.17188C0.380783 3.88021 0.8287 2.78646 1.72453 1.89062Z"
      fill="currentColor"
    ></path>
  </symbol>
  <symbol fill="none" viewBox="0 0 24 28" id="icon-receipt">
    <path
      d="M0 27.3125V0.6875L2 2.6875L4 0.6875L6 2.6875L8 0.6875L10 2.6875L12 0.6875L14 2.6875L16 0.6875L18 2.6875L20 0.6875L22 2.6875L24 0.6875V27.3125L22 25.3125L20 27.3125L18 25.3125L16 27.3125L14 25.3125L12 27.3125L10 25.3125L8 27.3125L6 25.3125L4 27.3125L2 25.3125L0 27.3125ZM20 10V7.3125H4V10H20ZM20 15.3125V12.6875H4V15.3125H20ZM20 20.6875V18H4V20.6875H20Z"
      fill="currentColor"
    ></path>
  </symbol>
  <symbol fill="none" viewBox="0 0 16 16" id="icon-search">
    <path
      d="M3.27344 8.58594C4.0026 9.3151 4.88802 9.67969 5.92969 9.67969C6.97135 9.67969 7.85677 9.3151 8.58594 8.58594C9.3151 7.85677 9.67969 6.97135 9.67969 5.92969C9.67969 4.88802 9.3151 4.0026 8.58594 3.27344C7.85677 2.54427 6.97135 2.17969 5.92969 2.17969C4.88802 2.17969 4.0026 2.54427 3.27344 3.27344C2.54427 4.0026 2.17969 4.88802 2.17969 5.92969C2.17969 6.97135 2.54427 7.85677 3.27344 8.58594ZM10.9297 9.67969L15.0703 13.8203L13.8203 15.0703L9.67969 10.9297V10.2656L9.44531 10.0312C8.45573 10.8906 7.28385 11.3203 5.92969 11.3203C4.41927 11.3203 3.13021 10.7995 2.0625 9.75781C1.02083 8.71615 0.5 7.4401 0.5 5.92969C0.5 4.41927 1.02083 3.14323 2.0625 2.10156C3.13021 1.03385 4.41927 0.5 5.92969 0.5C7.4401 0.5 8.71615 1.03385 9.75781 2.10156C10.7995 3.14323 11.3203 4.41927 11.3203 5.92969C11.3203 6.47656 11.1901 7.10156 10.9297 7.80469C10.6693 8.48177 10.3698 9.02865 10.0312 9.44531L10.2656 9.67969H10.9297Z"
      fill="currentColor"
    ></path>
  </symbol>
  <symbol fill="none" viewBox="0 0 11 12" id="icon-square-foot">
    <path
      d="M2.10069 9.51562H5.94444L2.10069 5.67188V9.51562ZM9.22569 9.95312L10.7882 11.5156H1.44444C1.09028 11.5156 0.777776 11.3802 0.506943 11.1094C0.236109 10.8385 0.100693 10.526 0.100693 10.1719V0.828125L1.66319 2.39062L0.975693 3.10938L1.44444 3.57812L2.13194 2.85938L3.44444 4.17188L2.72569 4.85938L3.19444 5.35938L3.91319 4.64062L5.22569 5.95312L4.50694 6.64062L4.97569 7.10938L5.69444 6.42188L6.97569 7.70312L6.25694 8.42188L6.75694 8.89062L7.44444 8.17188L8.75694 9.48438L8.03819 10.1719L8.50694 10.6406L9.22569 9.95312Z"
      fill="currentColor"
    ></path>
  </symbol>
  <symbol fill="none" viewBox="0 0 20 20" id="icon-star">
    <path
      d="M9.07088 0.644571C9.41462 -0.214858 10.5854 -0.214857 10.9291 0.644574L12.9579 5.71708C13.1029 6.0794 13.4306 6.32696 13.8067 6.35831L19.0727 6.79735C19.9649 6.87173 20.3267 8.02961 19.6469 8.63516L15.6348 12.2092C15.3482 12.4644 15.223 12.8651 15.3106 13.2466L16.5363 18.5905C16.744 19.4959 15.7969 20.2116 15.033 19.7264L10.5245 16.8627C10.2025 16.6581 9.7975 16.6581 9.47548 16.8627L4.96699 19.7264C4.20311 20.2116 3.25596 19.4959 3.46363 18.5905L4.68942 13.2466C4.77698 12.8651 4.65182 12.4644 4.36526 12.2092L0.353062 8.63516C-0.326718 8.02961 0.035068 6.87173 0.927291 6.79735L6.19336 6.35831C6.5695 6.32696 6.89716 6.0794 7.04207 5.71708L9.07088 0.644571Z"
      fill="currentColor"
    ></path>
  </symbol>
  <symbol fill="none" viewBox="0 0 18 16" id="icon-twitter">
    <path
      d="M17.9727 2.7174C17.5083 3.33692 16.9469 3.87733 16.3102 4.31776C16.3102 4.47959 16.3102 4.64142 16.3102 4.81225C16.3153 7.7511 15.1414 10.5691 13.0517 12.6345C10.9619 14.6999 8.1311 15.8399 5.19393 15.7989C3.49587 15.8046 1.81955 15.4169 0.2963 14.6661C0.21416 14.6302 0.16119 14.549 0.1615 14.4593V14.3604C0.1615 14.2313 0.26611 14.1267 0.39515 14.1267C2.0643 14.0716 3.6739 13.4929 4.99622 12.4724C3.48541 12.4419 2.12607 11.5469 1.50048 10.1707C1.46889 10.0956 1.47872 10.0093 1.52645 9.9432C1.57417 9.8771 1.65288 9.8407 1.73413 9.8471C2.1933 9.8932 2.65706 9.8505 3.10008 9.7212C1.43227 9.375 0.17909 7.9904 -0.000260007 6.2957C-0.00663001 6.2144 0.0298001 6.1357 0.0958801 6.0879C0.16195 6.0402 0.24812 6.0303 0.32326 6.062C0.77082 6.2595 1.25397 6.3635 1.74312 6.3676C0.28172 5.40846 -0.34951 3.58405 0.20643 1.92622C0.26382 1.76513 0.40169 1.64612 0.56938 1.61294C0.73706 1.57975 0.90984 1.63728 1.0242 1.76439C2.99627 3.86325 5.70592 5.11396 8.5818 5.25279C8.5082 4.95885 8.472 4.65676 8.474 4.35372C8.5009 2.76472 9.4841 1.34921 10.9633 0.769872C12.4424 0.190542 14.1248 0.562032 15.2229 1.71044C15.9713 1.56785 16.6949 1.31645 17.3706 0.964212C17.4201 0.933312 17.4829 0.933312 17.5324 0.964212C17.5633 1.01373 17.5633 1.07652 17.5324 1.12604C17.2051 1.87552 16.6522 2.50412 15.9508 2.92419C16.565 2.85296 17.1684 2.70807 17.7481 2.49264C17.7969 2.45942 17.861 2.45942 17.9098 2.49264C17.9507 2.51134 17.9813 2.54711 17.9934 2.59042C18.0055 2.63373 17.9979 2.68018 17.9727 2.7174Z"
      fill="currentColor"
    ></path>
  </symbol>
  <symbol fill="none" viewBox="0 0 6 8" id="icon-arrow">
    <path
      d="M1.65625 0L5.65625 4L1.65625 8L0.71875 7.0625L3.78125 4L0.71875 0.9375L1.65625 0Z"
      fill="currentColor"
    ></path>
  </symbol>
  <symbol fill="none" viewBox="0 0 14 14" id="icon-bathtub">
    <path
      d="M12.3808 7.82812H13.6933V11.8281C13.6933 12.1823 13.5579 12.4948 13.287 12.7656C13.037 13.0365 12.7349 13.1719 12.3808 13.1719C12.3808 13.3594 12.3079 13.5156 12.162 13.6406C12.037 13.7656 11.8808 13.8281 11.6933 13.8281H2.38078C2.19328 13.8281 2.02662 13.7656 1.88078 13.6406C1.75578 13.5156 1.69328 13.3594 1.69328 13.1719C1.33912 13.1719 1.02662 13.0365 0.755783 12.7656C0.505783 12.4948 0.380783 12.1823 0.380783 11.8281V7.82812H2.38078V7.32812C2.38078 6.93229 2.52662 6.58854 2.81828 6.29688C3.13078 5.98438 3.48495 5.82812 3.88078 5.82812C4.29745 5.82812 4.67245 5.99479 5.00578 6.32812L5.91203 7.35938C6.03703 7.50521 6.22453 7.66146 6.47453 7.82812H11.037V2.39062C11.037 2.24479 10.9849 2.11979 10.8808 2.01562C10.7766 1.89062 10.6412 1.82812 10.4745 1.82812C10.3287 1.82812 10.2037 1.88021 10.0995 1.98438L9.25578 2.82812C9.29745 2.99479 9.31828 3.10938 9.31828 3.17188C9.31828 3.40104 9.24537 3.64062 9.09953 3.89062L7.25578 2.04688C7.50578 1.90104 7.74537 1.82812 7.97453 1.82812C8.0787 1.82812 8.19328 1.84896 8.31828 1.89062L9.16203 1.04688C9.5162 0.692708 9.9537 0.515625 10.4745 0.515625C10.9954 0.515625 11.4433 0.703125 11.8183 1.07812C12.1933 1.43229 12.3808 1.86979 12.3808 2.39062V7.82812ZM2.75578 4.79688C2.50578 4.52604 2.38078 4.20312 2.38078 3.82812C2.38078 3.45312 2.50578 3.14062 2.75578 2.89062C3.00578 2.64062 3.31828 2.51562 3.69328 2.51562C4.06828 2.51562 4.38078 2.64062 4.63078 2.89062C4.90162 3.14062 5.03703 3.45312 5.03703 3.82812C5.03703 4.20312 4.90162 4.52604 4.63078 4.79688C4.38078 5.04688 4.06828 5.17188 3.69328 5.17188C3.31828 5.17188 3.00578 5.04688 2.75578 4.79688Z"
      fill="currentColor"
    ></path>
  </symbol>
  <symbol fill="none" viewBox="0 0 14 10" id="icon-bed">
    <path
      d="M13 4.1875V2.34375C13 1.96875 12.9062 1.63542 12.7188 1.34375C12.5521 1.03125 12.3125 0.791667 12 0.625C11.7083 0.4375 11.375 0.34375 11 0.34375H8.34375C8.07292 0.34375 7.82292 0.395833 7.59375 0.5C7.36458 0.583333 7.16667 0.697917 7 0.84375C6.83333 0.697917 6.63542 0.583333 6.40625 0.5C6.17708 0.395833 5.92708 0.34375 5.65625 0.34375H3C2.625 0.34375 2.28125 0.4375 1.96875 0.625C1.67708 0.791667 1.4375 1.03125 1.25 1.34375C1.08333 1.63542 1 1.96875 1 2.34375V4.1875C0.791667 4.375 0.625 4.59375 0.5 4.84375C0.395833 5.09375 0.34375 5.36458 0.34375 5.65625V9.65625H1.65625V8.34375H12.3438V9.65625H13.6562V5.65625C13.6562 5.36458 13.5938 5.09375 13.4688 4.84375C13.3646 4.59375 13.2083 4.375 13 4.1875ZM8.34375 1.65625H11C11.1875 1.65625 11.3438 1.72917 11.4688 1.875C11.5938 2 11.6562 2.15625 11.6562 2.34375V3.65625H7.65625V2.34375C7.65625 2.15625 7.71875 2 7.84375 1.875C7.98958 1.72917 8.15625 1.65625 8.34375 1.65625ZM2.34375 2.34375C2.34375 2.15625 2.40625 2 2.53125 1.875C2.65625 1.72917 2.8125 1.65625 3 1.65625H5.65625C5.84375 1.65625 6 1.72917 6.125 1.875C6.27083 2 6.34375 2.15625 6.34375 2.34375V3.65625H2.34375V2.34375ZM1.65625 7V5.65625C1.65625 5.48958 1.71875 5.34375 1.84375 5.21875C1.98958 5.07292 2.15625 5 2.34375 5H11.6562C11.8438 5 12 5.07292 12.125 5.21875C12.2708 5.34375 12.3438 5.48958 12.3438 5.65625V7H1.65625Z"
      fill="currentColor"
    ></path>
  </symbol>
</svg>
